<!-- Kenney 1-Bit Pack 1.2, CC0. Tile (24, 8); see third_party_licenses/kenney-monsters.md. -->
<svg xmlns="http://www.w3.org/2000/svg" viewBox="0 0 16 16" fill="currentColor" shape-rendering="crispEdges">
  <path d="M6 0h4v1H6zM5 1h1v1H5zM10 1h1v1H10zM4 2h1v1H4zM11 2h1v1H11zM4 3h1v1H4zM11 3h1v1H11zM4 4h1v1H4zM11 4h1v1H11zM4 5h1v1H4zM11 5h1v1H11zM2 6h3v1H2zM11 6h3v1H11zM1 7h1v1H1zM14 7h1v1H14zM1 8h1v1H1zM14 8h1v1H14zM1 9h1v1H1zM3 9h2v1H3zM11 9h2v1H11zM14 9h1v1H14zM1 10h1v1H1zM3 10h2v1H3zM11 10h2v1H11zM14 10h1v1H14zM1 11h1v1H1zM4 11h1v1H4zM11 11h1v1H11zM14 11h1v1H14zM1 12h1v1H1zM4 12h1v1H4zM6 12h4v1H6zM11 12h1v1H11zM14 12h1v1H14zM2 13h3v1H2zM6 13h1v1H6zM9 13h1v1H9zM11 13h3v1H11zM4 14h1v1H4zM6 14h1v1H6zM9 14h1v1H9zM11 14h1v1H11zM4 15h3v1H4zM9 15h3v1H9z"/>
</svg>
