<svg xmlns="http://www.w3.org/2000/svg" viewBox="0 0 24 24" fill="none">
  <path d="M7 2h9l5 5v13a2 2 0 0 1-2 2H7a2 2 0 0 1-2-2V4a2 2 0 0 1 2-2Z" fill="#D76D3E"/>
  <path d="M16 2v3a2 2 0 0 0 2 2h3" fill="#F6BD95"/>
  <path d="M16 10a4 4 0 0 1 4 4h-4v-4Z" fill="#FFE3C7"/>
  <path d="M16 15h4a4 4 0 0 1-4 4v-4Z" fill="#F6BD95"/>
  <rect x="1" y="8" width="14" height="12" rx="2" fill="#A23D24"/>
  <path d="M6 17v-6h2.5a2 2 0 0 1 0 4H6" stroke="#FFF" stroke-width="1.7" stroke-linecap="round" stroke-linejoin="round"/>
</svg>
